<?xml version="1.0" standalone="no"?>
<!DOCTYPE svg PUBLIC "-//W3C//DTD SVG 20010904//EN"
 "http://www.w3.org/TR/2001/REC-SVG-20010904/DTD/svg10.dtd">
<svg version="1.0" xmlns="http://www.w3.org/2000/svg"
 width="2585.000000pt" height="340.000000pt" viewBox="0 0 2585.000000 340.000000"
 preserveAspectRatio="xMidYMid meet">
<metadata>
Created by potrace 1.11, written by Peter Selinger 2001-2013
</metadata>
<g transform="translate(0.000000,340.000000) scale(0.100000,-0.100000)"
fill="#ffffff" stroke="none">
<path d="M1480 3035 c-8 -9 -12 -54 -13 -127 0 -62 -2 -121 -5 -131 -3 -10
-36 -39 -75 -64 -66 -44 -164 -134 -216 -198 -27 -34 -91 -157 -91 -177 -1 -7
-9 -31 -20 -53 -11 -22 -19 -47 -20 -56 0 -9 -3 -19 -7 -23 -4 -3 -8 -14 -9
-24 -4 -28 -25 -116 -31 -132 -3 -8 -7 -22 -8 -30 -1 -8 -8 -51 -15 -95 -12
-76 -15 -211 -5 -265 2 -14 7 -48 10 -77 3 -29 9 -74 14 -100 5 -26 8 -49 7
-51 -9 -9 -139 -38 -181 -41 -70 -4 -82 -13 -90 -68 -6 -43 -5 -49 20 -70 21
-18 38 -23 85 -23 52 0 160 19 204 36 10 4 23 -10 42 -48 53 -107 136 -181
247 -222 93 -35 193 -9 225 58 14 28 37 165 46 268 2 32 7 61 10 66 3 6 32 13
63 17 32 4 83 13 113 21 30 8 71 17 90 20 19 2 51 9 70 14 52 15 100 13 100
-4 0 -24 -31 -90 -65 -136 -39 -54 -51 -120 -29 -162 8 -15 20 -28 27 -29 6 0
27 -2 46 -5 31 -4 39 2 100 64 147 151 466 331 781 439 61 21 95 26 181 27 92
1 110 -2 128 -18 34 -31 28 -55 -35 -146 -73 -104 -124 -226 -124 -296 0 -62
74 -114 142 -100 45 9 225 165 256 221 11 20 12 20 49 -3 139 -84 234 -97 424
-58 67 14 174 44 237 65 124 43 142 42 142 -7 0 -63 62 -141 138 -171 41 -17
145 -10 187 13 17 9 37 16 46 16 8 0 19 4 25 9 5 5 34 19 64 32 30 12 69 33
87 46 17 12 36 23 41 23 5 0 39 27 75 60 36 33 67 60 70 60 3 0 17 -20 31 -44
58 -100 175 -182 293 -206 143 -30 367 1 480 66 23 13 46 24 52 24 5 0 24 -20
40 -44 85 -123 181 -179 380 -224 54 -12 400 -7 444 7 18 5 52 12 77 15 61 9
99 21 209 69 l94 41 72 -38 c95 -50 173 -65 325 -65 163 -1 296 25 416 80 51
24 65 24 97 -1 14 -11 45 -27 69 -35 38 -14 86 -36 178 -81 32 -15 165 -49
251 -63 122 -20 317 -13 511 18 152 24 402 127 513 211 159 119 278 287 305
430 23 118 8 287 -29 324 -19 18 -19 18 -37 -8 -15 -24 -19 -71 -12 -146 3
-27 -14 -120 -23 -126 -5 -3 -9 -14 -9 -25 0 -47 -100 -170 -210 -259 -68 -55
-238 -150 -267 -150 -6 0 -47 -13 -90 -29 -76 -28 -129 -41 -243 -61 -30 -6
-134 -10 -231 -11 -151 -1 -190 2 -265 21 -99 25 -194 65 -194 81 0 14 29 118
40 144 18 43 22 64 30 160 8 109 0 144 -41 166 -40 21 -63 3 -127 -96 -34 -52
-68 -98 -76 -101 -8 -3 -28 4 -45 16 -42 32 -72 22 -93 -32 -10 -24 -18 -67
-18 -96 l0 -53 -66 -30 c-99 -45 -226 -67 -369 -65 -193 3 -214 16 -159 102
26 41 37 71 43 123 8 59 6 144 -4 176 -1 6 -2 12 -1 15 3 12 -50 74 -78 91
-35 22 -106 25 -157 7 -39 -13 -99 -56 -99 -70 0 -5 -11 -24 -24 -41 -26 -34
-46 -97 -50 -157 -3 -38 12 -109 25 -124 5 -6 9 -22 9 -37 0 -24 -7 -29 -82
-57 -156 -58 -391 -82 -590 -60 -66 7 -170 47 -208 80 -28 24 -69 85 -76 112
-6 25 -4 26 33 26 21 0 48 7 59 15 33 23 56 81 50 123 -8 46 -4 52 65 91 66
37 119 41 156 11 33 -26 63 -25 97 1 47 37 29 90 -51 145 -51 35 -59 37 -126
37 -40 -1 -92 -8 -116 -16 -42 -15 -69 -13 -82 5 -3 5 -22 11 -41 14 -34 6
-38 3 -85 -56 -28 -34 -62 -85 -77 -114 -28 -56 -57 -175 -49 -204 6 -23 -53
-56 -127 -72 -244 -49 -378 -48 -441 6 -8 8 -20 14 -26 14 -33 0 -100 112
-129 213 -19 68 -45 97 -90 97 -27 0 -40 -9 -75 -52 -119 -144 -219 -218 -369
-275 -142 -53 -179 -43 -159 43 6 27 17 63 24 80 15 34 1 118 -24 147 -20 25
-78 33 -100 13 -10 -9 -21 -16 -25 -16 -4 0 -15 -8 -26 -18 -82 -76 -463 -199
-585 -189 -78 6 -108 21 -141 68 -24 35 -26 45 -20 92 18 137 17 171 -2 222
-24 60 -57 84 -98 70 -22 -8 -33 -23 -52 -75 -45 -124 -38 -118 -75 -64 -51
76 -106 99 -241 100 -127 2 -243 -19 -357 -64 -92 -37 -181 -80 -234 -114 -22
-14 -78 -44 -125 -67 -47 -23 -103 -53 -125 -66 -22 -14 -43 -25 -47 -25 -3 0
-25 29 -47 65 -35 55 -46 65 -77 71 -49 9 -167 -3 -256 -25 -82 -22 -217 -45
-223 -39 -4 4 -18 878 -15 978 1 35 6 72 11 82 10 18 119 73 169 85 14 3 30 9
35 13 14 10 74 31 115 40 218 48 246 51 398 53 137 2 167 -1 236 -21 93 -27
154 -66 193 -125 64 -94 137 -32 83 71 -62 119 -294 214 -536 221 -54 1 -101
4 -105 7 -11 6 -168 -16 -264 -37 -49 -12 -137 -36 -194 -56 -57 -19 -107 -31
-111 -26 -4 4 -10 37 -12 72 -4 58 -8 67 -41 97 -40 37 -67 43 -87 19z m-24
-586 c1 -41 5 -264 9 -495 l7 -421 -33 -12 c-18 -6 -85 -20 -150 -31 -65 -11
-124 -23 -131 -25 -8 -3 -22 0 -31 7 -34 25 -56 355 -31 453 48 186 123 372
180 444 48 61 155 162 168 158 7 -2 11 -32 12 -78z m5792 -979 c2 -55 2 -55
-44 -89 -39 -30 -47 -32 -60 -20 -8 8 -15 31 -17 51 -3 50 52 121 91 116 25
-3 27 -7 30 -58z m-5781 -126 c16 -43 -46 -214 -79 -214 -32 0 -113 32 -136
54 -33 30 -76 106 -66 115 5 4 36 14 69 21 33 7 80 18 105 26 63 18 99 17 107
-2z"/>
<path d="M21583 2850 c-13 -5 -23 -14 -23 -21 0 -6 -7 -8 -15 -5 -9 3 -18 -1
-22 -10 -3 -8 -49 -59 -102 -112 -54 -54 -101 -104 -105 -112 -17 -35 -35 -62
-54 -83 -11 -12 -32 -44 -46 -72 -14 -27 -39 -66 -56 -85 -17 -19 -33 -46 -37
-59 -3 -14 -18 -43 -33 -65 -15 -23 -31 -51 -34 -63 -4 -13 -12 -23 -17 -23
-5 0 -8 -3 -7 -7 2 -10 -42 -83 -50 -83 -4 0 -27 19 -52 41 -132 121 -250 171
-455 194 -56 6 -186 -48 -236 -99 -45 -46 -100 -168 -104 -229 -5 -104 34
-257 81 -316 44 -56 138 -146 180 -173 59 -39 172 -90 274 -124 67 -23 87 -29
125 -37 35 -8 46 -34 18 -43 -10 -4 -40 -17 -68 -29 -62 -29 -86 -38 -105 -41
-8 -1 -28 -7 -43 -13 -47 -18 -311 -26 -407 -12 -140 21 -241 80 -260 152 -9
34 -7 45 22 100 27 52 34 76 36 139 3 61 1 80 -13 93 -49 49 -132 -17 -180
-144 -16 -41 -36 -80 -44 -87 -75 -59 -229 -99 -313 -81 -59 13 -104 40 -113
68 -3 10 2 41 12 67 32 93 8 204 -45 204 -25 0 -69 -39 -82 -72 -24 -64 -43
-103 -64 -131 -38 -52 -230 -156 -346 -187 -65 -18 -150 -28 -150 -18 0 4 6 8
13 8 15 0 71 57 113 115 16 22 31 42 34 45 12 11 100 192 100 206 0 8 4 22 9
32 5 9 15 44 21 77 6 33 13 69 16 80 20 89 3 329 -31 430 -19 56 -73 135 -108
158 -39 26 -137 40 -183 28 -40 -11 -149 -75 -183 -109 -38 -37 -122 -144
-148 -190 -15 -26 -31 -48 -35 -50 -4 -2 -8 -8 -8 -13 0 -4 -11 -32 -24 -61
-46 -103 -83 -206 -92 -263 -1 -11 -9 -47 -16 -80 -8 -36 -12 -110 -10 -187
l3 -128 -34 0 c-58 0 -190 40 -249 76 -31 19 -79 61 -107 93 -28 32 -65 64
-83 72 -30 12 -32 11 -61 -22 -16 -19 -47 -72 -68 -119 -73 -157 -82 -169
-141 -200 -31 -16 -43 -18 -54 -9 -22 18 -17 41 20 79 41 42 146 196 146 214
0 7 9 21 20 31 11 10 20 26 20 35 0 9 4 20 9 26 5 5 14 27 21 49 6 22 24 74
40 115 15 41 38 109 50 150 13 41 27 86 32 100 15 37 56 237 63 300 4 39 -20
165 -40 214 -7 17 -23 40 -35 51 -21 19 -22 19 -56 0 -41 -22 -127 -108 -156
-156 -11 -17 -27 -39 -35 -48 -42 -41 -146 -303 -180 -451 -53 -235 -73 -369
-77 -524 -3 -104 -4 -110 -29 -128 -75 -54 -281 -142 -358 -152 -13 -2 -35 -6
-49 -10 -97 -25 -320 -23 -517 3 -219 30 -344 113 -368 244 -8 39 -18 51 -52
59 -24 6 -63 -16 -63 -36 0 -8 -25 -35 -54 -60 -119 -102 -378 -184 -403 -129
-12 26 -9 53 10 97 18 42 22 92 8 100 -4 3 -11 19 -14 36 -5 21 -14 31 -32 36
-30 7 -51 -8 -69 -50 -7 -17 -42 -53 -76 -81 -34 -27 -77 -62 -94 -77 -18 -15
-72 -46 -122 -70 -49 -23 -91 -45 -94 -49 -3 -3 -25 -11 -50 -18 -25 -7 -61
-17 -80 -22 -159 -47 -431 -76 -465 -50 -5 5 -28 12 -50 16 -39 7 -112 43
-149 74 -35 30 -76 94 -76 120 0 27 35 71 84 104 32 22 34 59 6 105 -16 26
-26 32 -55 32 -77 0 -185 58 -185 100 0 9 13 26 29 38 37 27 73 119 65 162 -8
36 -49 80 -77 80 -34 0 -127 -119 -127 -163 0 -22 -53 -58 -125 -87 -33 -12
-70 -32 -82 -43 -12 -10 -26 -17 -31 -13 -5 3 -33 -4 -63 -15 -79 -30 -187
-49 -265 -45 -69 3 -108 18 -180 69 -18 12 -40 27 -50 33 -16 10 -16 12 6 42
21 28 22 34 10 62 -15 35 -64 80 -89 80 -23 0 -84 -75 -120 -149 -79 -164 -68
-364 29 -507 86 -128 197 -170 345 -129 77 21 119 49 150 102 35 58 33 113 -5
185 l-30 57 29 16 c17 8 39 15 50 15 29 0 246 73 325 109 74 34 90 34 107 -1
6 -13 37 -44 69 -70 l58 -48 -15 -65 c-13 -58 -13 -70 2 -122 17 -59 63 -130
109 -170 14 -13 28 -23 31 -23 2 0 26 -13 54 -29 147 -87 358 -98 646 -32 93
21 229 64 249 79 6 5 27 15 46 22 19 8 68 36 109 62 41 26 80 48 85 48 6 0 22
-21 36 -47 33 -63 86 -93 167 -94 98 -2 285 65 368 131 21 17 45 30 54 30 9 0
35 -18 56 -41 84 -86 212 -138 385 -159 117 -14 434 -14 498 1 26 6 58 12 72
14 96 14 246 67 357 127 53 29 93 36 93 16 0 -23 52 -79 87 -93 46 -20 61 -19
107 5 78 39 167 144 220 258 18 39 38 40 74 7 30 -28 145 -91 195 -107 54 -17
231 -44 319 -47 9 -1 29 -12 45 -25 93 -78 243 -112 408 -91 55 7 173 39 220
60 17 7 59 25 94 40 57 24 99 46 156 83 58 37 62 37 97 0 104 -109 293 -135
469 -64 36 14 70 26 76 26 6 0 26 -25 46 -55 84 -125 260 -188 527 -186 155 1
198 4 273 20 112 25 205 64 296 126 41 27 88 60 105 71 17 12 37 28 43 35 9
11 49 14 200 12 126 -1 224 3 298 13 61 9 124 17 140 19 17 2 66 14 110 26 44
12 95 24 113 26 17 3 32 9 32 14 0 5 7 9 16 9 20 0 101 37 109 50 3 5 13 10
22 10 9 0 24 7 34 16 10 9 24 14 32 11 7 -3 26 -54 42 -113 16 -60 37 -125 47
-144 10 -19 18 -40 18 -47 0 -7 11 -23 25 -37 14 -14 25 -32 25 -41 0 -8 7
-15 15 -15 9 0 18 -6 21 -14 16 -42 137 -46 192 -8 16 12 40 22 51 22 12 0 21
5 21 10 0 6 6 10 13 10 6 0 23 9 37 20 14 11 31 20 38 20 7 0 25 14 39 30 13
17 28 28 33 25 4 -2 19 8 33 23 47 48 63 62 75 62 7 0 12 5 12 10 0 24 18 7
25 -22 4 -18 9 -38 10 -44 15 -63 118 -213 147 -214 11 0 15 -5 12 -15 -4 -10
0 -15 13 -15 10 0 24 -5 31 -12 6 -6 26 -17 44 -24 18 -7 61 -24 95 -38 63
-27 70 -29 188 -46 39 -6 77 -13 85 -16 8 -3 36 -7 61 -8 25 -2 51 -6 57 -10
7 -4 12 -2 12 6 0 10 2 10 9 0 7 -12 12 -12 30 0 17 10 23 10 29 1 5 -9 19 -9
47 -3 22 5 49 9 60 9 l20 0 -20 -9 c-18 -8 -17 -9 8 -9 15 -1 27 4 27 9 0 6 5
10 11 10 5 0 7 -5 4 -10 -3 -6 -1 -10 4 -10 6 0 11 3 11 8 0 4 30 8 67 10 38
2 73 8 80 14 9 7 13 7 13 -1 0 -7 5 -9 13 -4 20 13 99 32 134 33 17 0 35 5 38
11 4 5 12 8 18 6 7 -2 19 2 28 10 19 16 61 27 101 26 15 0 29 6 32 13 3 8 14
14 25 14 26 0 83 25 74 33 -3 4 -1 7 5 7 6 0 13 -8 15 -17 4 -14 5 -13 6 3 1
15 10 24 28 29 15 3 34 14 42 24 24 28 90 60 111 54 15 -4 18 -1 15 16 -4 22
10 38 20 21 3 -5 11 -10 16 -10 6 0 7 5 4 10 -9 14 13 40 29 34 7 -3 18 7 24
21 6 14 18 25 26 25 8 0 25 15 38 33 26 36 47 63 66 83 15 16 62 101 62 112 0
4 -5 0 -10 -8 -5 -8 -10 -10 -10 -4 0 6 7 17 15 24 13 11 13 15 3 22 -9 5 -10
10 -3 16 16 11 16 49 -1 63 -8 6 -14 17 -14 23 0 21 -63 12 -87 -12 -13 -13
-21 -28 -18 -33 4 -5 -4 -9 -17 -10 -13 0 -18 -3 -12 -5 18 -8 -7 -54 -33 -60
-12 -3 -32 -20 -44 -37 -23 -33 -102 -97 -120 -97 -5 0 -8 -4 -5 -9 4 -5 -8
-12 -25 -16 -17 -4 -33 -13 -36 -21 -4 -12 -8 -12 -21 -2 -13 11 -15 10 -10
-9 7 -26 -17 -39 -38 -22 -11 9 -13 9 -9 -2 5 -15 -46 -42 -102 -54 -18 -4
-33 -11 -33 -17 0 -5 -6 -8 -12 -6 -7 3 -23 -1 -36 -8 -14 -7 -31 -10 -38 -7
-8 3 -14 0 -14 -6 0 -6 -7 -8 -15 -5 -8 4 -21 1 -28 -4 -7 -6 -29 -13 -49 -15
-20 -2 -44 -9 -52 -16 -8 -7 -24 -10 -36 -6 -13 4 -31 0 -47 -10 -16 -11 -36
-15 -53 -12 -15 3 -32 1 -39 -6 -8 -8 -50 -12 -121 -12 -61 0 -110 -2 -110 -6
0 -3 -19 -4 -42 -2 -24 1 -83 5 -133 9 -49 3 -105 13 -123 21 -18 9 -45 13
-60 10 -16 -3 -35 0 -46 9 -11 8 -30 14 -43 14 -13 0 -36 12 -51 27 -15 15
-32 26 -38 25 -17 -3 -94 80 -94 101 0 10 -9 30 -21 46 -13 18 -20 43 -21 72
0 24 -5 50 -10 56 -6 7 -7 24 -4 39 8 31 -12 91 -33 98 -9 3 -23 11 -32 17
-13 9 -23 8 -49 -5 -18 -9 -39 -16 -47 -16 -7 0 -13 -5 -13 -11 0 -13 -38 -49
-51 -49 -4 0 -15 -8 -25 -17 -10 -10 -20 -18 -23 -18 -15 0 -81 -59 -81 -72 0
-9 -6 -13 -15 -9 -9 3 -19 -3 -25 -14 -6 -11 -15 -20 -20 -20 -5 0 -34 -16
-64 -35 -30 -19 -64 -35 -76 -35 -11 0 -20 -4 -20 -8 0 -5 -15 -13 -34 -19
-34 -11 -56 -3 -56 21 0 5 -6 17 -14 25 -8 9 -17 28 -19 42 -3 15 -12 41 -21
58 -9 17 -14 31 -12 31 3 0 1 13 -4 29 -5 17 -4 62 2 106 10 74 12 79 65 133
30 32 68 76 85 100 17 23 35 42 40 42 4 0 8 7 8 15 0 8 5 15 10 15 6 0 16 12
22 26 7 14 27 42 45 62 18 20 33 40 33 44 0 10 13 27 52 70 15 16 40 52 55 81
15 29 30 54 33 57 5 4 56 108 61 125 1 2 8 26 14 52 7 26 17 47 22 46 14 -3
-2 102 -22 143 -9 19 -27 39 -40 44 -28 11 -85 -5 -85 -23 0 -7 -20 -21 -45
-32 -25 -11 -45 -25 -45 -31 0 -7 -16 -27 -35 -45 -19 -19 -35 -38 -35 -44 -1
-14 -47 -65 -60 -65 -6 0 -13 -13 -16 -29 -4 -17 -12 -32 -20 -35 -7 -3 -20
-21 -28 -41 -8 -19 -20 -35 -25 -35 -6 0 -11 -11 -11 -24 0 -14 -5 -28 -11
-31 -5 -4 -14 -17 -19 -28 -6 -12 -21 -40 -35 -62 -14 -22 -29 -49 -34 -60
-43 -93 -54 -121 -53 -127 1 -5 -3 -8 -9 -8 -6 0 -8 -8 -4 -19 3 -10 -1 -24
-10 -31 -8 -7 -15 -24 -15 -38 0 -44 -78 -142 -112 -142 -7 0 -29 -10 -48 -22
-69 -42 -118 -65 -186 -87 -38 -13 -87 -30 -109 -37 -23 -8 -50 -14 -62 -14
-12 0 -25 -5 -28 -10 -3 -6 -17 -7 -29 -4 -13 3 -41 -2 -62 -11 -51 -21 -337
-34 -348 -16 -5 7 4 30 20 54 15 23 39 60 54 82 14 22 34 56 44 75 9 19 31 60
47 90 17 30 40 76 50 103 10 26 28 71 40 100 12 28 28 79 36 112 8 33 18 64
22 70 4 5 13 35 20 65 8 30 16 59 19 64 3 6 6 19 8 30 1 12 9 57 19 101 9 44
21 98 26 120 21 98 28 147 22 161 -3 8 -1 20 5 27 7 8 7 28 2 57 -5 25 -9 48
-10 51 -1 13 -36 46 -55 52 -11 3 -30 2 -42 -3z m-63 -354 c0 -13 -3 -26 -7
-28 -7 -3 -21 -60 -63 -263 -5 -22 -17 -58 -26 -80 -10 -22 -19 -47 -20 -55 0
-8 -11 -35 -23 -59 -11 -25 -21 -53 -21 -63 0 -11 -4 -16 -10 -13 -5 3 -10 -2
-10 -13 0 -10 -11 -39 -25 -63 -14 -24 -27 -51 -31 -59 -3 -8 -10 -24 -17 -35
-6 -11 -18 -33 -26 -50 -9 -16 -20 -33 -26 -37 -5 -4 -11 -12 -11 -18 -1 -5
-2 -14 -3 -19 -1 -10 -83 -91 -91 -91 -3 0 -4 42 -2 93 3 62 -1 112 -11 151
-16 59 -15 64 16 136 5 14 10 28 9 33 -1 4 3 7 8 7 5 0 10 4 10 9 0 5 24 51
53 102 28 52 59 108 67 124 8 17 19 35 23 40 9 11 85 126 102 153 6 9 22 30
35 46 69 80 100 96 100 52z m-3885 -107 c8 -36 -1 -123 -21 -194 -44 -162 -57
-202 -74 -238 -11 -23 -20 -48 -20 -57 0 -9 -7 -25 -15 -36 -8 -10 -15 -26
-15 -35 0 -9 -11 -41 -24 -70 -13 -30 -30 -69 -37 -86 -8 -18 -17 -33 -21 -33
-5 0 -8 -8 -8 -18 0 -40 -90 -148 -103 -125 -5 9 19 178 36 258 3 11 8 40 13
65 9 49 10 56 14 68 2 4 4 12 5 17 14 97 85 301 132 384 28 49 104 131 121
131 6 0 13 -14 17 -31z m1153 -135 c35 -42 40 -63 52 -209 7 -87 6 -126 -6
-185 -9 -41 -20 -79 -25 -84 -5 -6 -9 -18 -9 -29 0 -26 -67 -161 -112 -226
-21 -30 -54 -65 -73 -78 -57 -39 -161 -73 -241 -80 l-74 -6 -22 49 c-37 80
-28 230 25 419 13 47 92 212 131 273 36 57 131 147 181 172 24 12 60 20 92 20
47 0 54 -3 81 -36z m1815 -160 c104 -23 193 -70 255 -133 50 -51 53 -57 47
-90 -4 -20 -13 -49 -20 -66 -8 -16 -21 -52 -30 -80 -9 -27 -23 -64 -31 -82 -8
-17 -14 -41 -14 -52 0 -33 -27 -91 -43 -91 -41 0 -275 99 -298 126 -6 8 -17
14 -24 14 -7 0 -37 27 -67 59 -54 57 -98 147 -98 200 0 21 28 93 40 101 4 3
12 14 18 26 10 18 84 62 132 78 27 9 60 6 133 -10z m-7802 -602 c26 -20 109
-54 176 -71 73 -20 145 -127 112 -167 -15 -18 -43 -31 -114 -50 -43 -12 -56
-12 -97 2 -81 27 -142 137 -134 245 5 61 18 71 57 41z"/>
<path d="M12745 2750 c-3 -5 -4 -14 -1 -18 3 -5 -3 -20 -12 -33 -21 -29 -41
-81 -51 -132 -23 -107 -186 -365 -334 -527 -46 -50 -210 -202 -261 -242 -34
-25 -72 -58 -86 -72 -14 -14 -40 -28 -58 -32 -27 -5 -36 -2 -59 23 -40 42
-151 127 -219 168 -96 57 -146 78 -197 83 -26 2 -49 8 -52 12 -2 4 -9 56 -15
116 -15 162 -44 234 -126 320 -56 57 -115 82 -220 93 -49 5 -92 8 -95 6 -3 -2
-41 -6 -85 -9 -43 -4 -104 -9 -134 -13 -30 -4 -93 -7 -140 -7 l-84 -1 -7 -34
c-4 -19 -5 -39 -3 -45 15 -40 137 -56 282 -37 244 31 255 32 317 16 67 -18
125 -57 125 -85 0 -10 4 -21 9 -25 16 -10 41 -141 41 -219 0 -41 -6 -105 -14
-143 -8 -37 -17 -81 -20 -98 -3 -16 -21 -84 -42 -150 -20 -66 -38 -133 -41
-149 -3 -16 -11 -40 -19 -54 -7 -13 -10 -31 -7 -38 3 -8 1 -14 -5 -14 -5 0
-12 -12 -15 -27 -3 -16 -10 -46 -16 -68 -25 -99 -39 -177 -51 -294 -9 -80 -8
-101 5 -135 20 -49 38 -63 91 -71 36 -6 45 -3 68 20 14 14 26 29 26 34 0 4
-16 21 -35 38 -38 34 -39 46 -16 173 17 97 69 317 81 345 7 16 61 190 76 243
7 25 36 6 94 -63 32 -37 71 -65 140 -100 51 -26 60 -27 151 -22 60 3 108 11
128 21 18 10 40 14 51 11 27 -9 92 -99 162 -225 136 -245 200 -346 307 -485
88 -114 165 -168 259 -181 32 -4 44 -1 68 19 41 35 58 100 40 152 -18 51 -43
56 -79 15 -31 -35 -68 -39 -108 -12 -57 38 -210 217 -224 263 -4 11 -13 19
-21 19 -8 0 -14 8 -14 19 0 10 -8 29 -19 42 -19 25 -44 71 -80 147 -11 23 -27
45 -36 48 -8 4 -15 12 -15 20 0 32 -96 191 -122 202 -19 9 -5 44 28 69 170
131 399 350 554 529 53 60 167 286 205 405 15 46 31 91 35 100 22 44 -80 130
-105 89z m-1172 -952 c29 -12 68 -33 87 -46 50 -34 140 -113 140 -124 0 -5
-16 -16 -35 -24 -46 -19 -150 -3 -209 31 -63 37 -116 135 -93 173 12 18 52 15
110 -10z"/>
</g>
</svg>
